<svg xmlns="http://www.w3.org/2000/svg" viewBox="0 0 420 300" role="img" aria-label="Stromteiler Schaltung">
  <defs>
    <filter id="glow" x="-30%" y="-30%" width="160%" height="160%">
      <feGaussianBlur stdDeviation="2.4" result="b"/>
      <feMerge><feMergeNode in="b"/><feMergeNode in="SourceGraphic"/></feMerge>
    </filter>
    <style>
      .w{fill:none;stroke:#1565c0;stroke-width:3;stroke-linecap:round;stroke-linejoin:round}
      .n{fill:#0d47a1}
      .t{font-family:'Segoe UI',Arial,sans-serif;font-size:15px;fill:#0d2a4a;font-weight:600}
      .flow{fill:none;stroke:#22d3ee;stroke-width:3;stroke-linecap:round;
            stroke-dasharray:5 21;filter:url(#glow);animation:flow 1.1s linear infinite}
      .flow2{animation-duration:.9s}
      @keyframes flow{to{stroke-dashoffset:-26}}
      @media (prefers-reduced-motion: reduce){.flow{animation:none;opacity:.5}.spark{display:none}}
    </style>
  </defs>
  <!-- source -->
  <circle class="w" cx="70" cy="150" r="26" fill="#e3f0fd"/>
  <path class="w" d="M70 138 V162 M58 150 H82"/>
  <text class="t" x="40" y="118">I<tspan baseline-shift="sub" font-size="11">q</tspan></text>
  <!-- top and bottom rails -->
  <path class="w" d="M70 124 V70 H330 V230 H70 V176"/>
  <!-- parallel branches -->
  <path class="w" d="M200 70 V230 M300 70 V230"/>
  <!-- fließender Strom: Hauptschleife + Zweige -->
  <path class="flow" d="M96 150 H70 V70 H330 V230 H70 V150"/>
  <path class="flow flow2" d="M200 70 V230"/>
  <path class="flow flow2" d="M300 70 V230"/>
  <!-- R1 -->
  <rect class="w" x="189" y="120" width="22" height="44" rx="3" fill="#e3f0fd"/>
  <text class="t" x="156" y="148">R<tspan baseline-shift="sub" font-size="11">1</tspan></text>
  <!-- R2 -->
  <rect class="w" x="289" y="120" width="22" height="44" rx="3" fill="#e3f0fd"/>
  <text class="t" x="320" y="148">R<tspan baseline-shift="sub" font-size="11">2</tspan></text>
  <text class="t" x="170" y="100">I<tspan baseline-shift="sub" font-size="11">1</tspan></text>
  <text class="t" x="310" y="100">I<tspan baseline-shift="sub" font-size="11">2</tspan></text>
  <text class="t" x="150" y="34" font-size="17" font-weight="700">Stromteiler</text>
</svg>
